<svg width="22" height="22" viewBox="0 0 22 22" fill="none" xmlns="http://www.w3.org/2000/svg">
<g id="Frame" clip-path="url(#clip0_1277_775)">
<g id="Group">
<path id="Vector" d="M21.9945 22L22 21.9991V13.9306C22 9.98342 21.1502 6.94283 16.5357 6.94283C14.3174 6.94283 12.8288 8.16017 12.221 9.31425H12.1568V7.31133H7.78158V21.9991H12.3374V14.7263C12.3374 12.8113 12.7004 10.9597 15.0718 10.9597C17.4084 10.9597 17.4432 13.145 17.4432 14.8491V22H21.9945ZM0.363 7.31225H4.92433V22H0.363V7.31225ZM2.64183 0C1.18342 0 0 1.18342 0 2.64183C0 4.10025 1.18342 5.30842 2.64183 5.30842C4.10025 5.30842 5.28367 4.10025 5.28367 2.64183C5.28318 1.94132 5.00469 1.26965 4.50936 0.774311C4.01402 0.278977 3.34234 0.000485622 2.64183 0Z" fill="#3D44DF"/>
</g>
</g>
<defs>
<clipPath id="clip0_1277_775">
<rect width="22" height="22" fill="white"/>
</clipPath>
</defs>
</svg>
