<svg width="22" height="22" viewBox="0 0 22 22" fill="none" xmlns="http://www.w3.org/2000/svg">
<g id="Frame">
<g id="Group">
<path id="Vector" d="M20.6387 5.51758C19.3831 5.51758 18.2247 5.10164 17.2944 4.39996C16.2275 3.59559 15.4609 2.41566 15.1902 1.0557C15.1223 0.713753 15.0866 0.36619 15.0837 0.0175781H11.4971V9.81789L11.4928 15.186C11.4928 16.6211 10.5582 17.838 9.26268 18.266C8.87463 18.3943 8.46592 18.4485 8.05783 18.4258C7.51815 18.3962 7.0124 18.2333 6.57283 17.9703C5.6374 17.4109 5.00318 16.396 4.986 15.235C4.95893 13.4204 6.42588 11.941 8.23916 11.941C8.59709 11.941 8.94084 11.9994 9.26268 12.1055V8.46394C8.92322 8.41367 8.57776 8.38746 8.22842 8.38746C6.24369 8.38746 4.38744 9.21246 3.06057 10.6987C2.05768 11.822 1.45611 13.255 1.3633 14.7576C1.2417 16.7316 1.964 18.608 3.36479 19.9925C3.57061 20.1957 3.78674 20.3843 4.01275 20.5584C5.21373 21.4826 6.68197 21.9836 8.22842 21.9836C8.57776 21.9836 8.92322 21.9578 9.26268 21.9076C10.7073 21.6936 12.0402 21.0323 13.0921 19.9925C14.3846 18.715 15.0987 17.019 15.1064 15.2139L15.088 7.19766C15.706 7.67438 16.3831 8.06923 17.1023 8.37242C18.2277 8.84723 19.4209 9.08785 20.649 9.08742V5.51672C20.6498 5.51758 20.6395 5.51758 20.6387 5.51758Z" fill="#3D44DF"/>
</g>
</g>
</svg>
