<svg width="47" height="47" viewBox="0 0 47 47" fill="none" xmlns="http://www.w3.org/2000/svg">
<g id="Frame" clip-path="url(#clip0_1279_795)">
<g id="Group">
<path id="Vector" d="M11.4402 31.1708V45.3696C11.4402 46.6632 13.0944 47.2145 13.8699 46.179L20.8058 36.9334L22.92 35.8501L45.8129 3.48178L46.2387 0.964844L42.5191 3.02035L11.4326 30.0064L11.4402 31.1708Z" fill="#FE9923"/>
<path id="Vector_2" d="M44.8515 0.74828C44.7905 0.77267 1.44411 22.536 1.38525 22.5655C0.439976 23.0381 0.381836 24.3677 1.28112 24.9227L11.4391 31.1744L46.2376 0.96842C45.8838 0.66188 45.3757 0.53102 44.8515 0.74828Z" fill="#FEDB41"/>
<path id="Vector_3" d="M46.2849 1.03108C46.2655 1.01209 46.2591 0.982664 46.2386 0.964844L45.9744 1.33924L20.8057 36.9333L36.3821 46.5192C37.1933 47.0178 38.2433 46.5424 38.4163 45.6187L46.6982 2.23969C46.7862 1.78186 46.6007 1.33843 46.2849 1.03108Z" fill="#FFCC33"/>
</g>
</g>
<defs>
<clipPath id="clip0_1279_795">
<rect width="46.08" height="46.08" fill="white" transform="translate(0.640137 0.640625)"/>
</clipPath>
</defs>
</svg>
