<svg width="150" height="150" viewBox="0 0 150 150" fill="none" xmlns="http://www.w3.org/2000/svg">
<g id="Frame">
<g id="Group">
<path id="Vector" d="M135.331 33.8379C136.948 33.8379 138.261 35.1504 138.261 36.7676C138.261 38.3848 136.948 39.6973 135.331 39.6973C133.714 39.6973 132.401 38.3848 132.401 36.7676C132.401 35.1504 133.714 33.8379 135.331 33.8379ZM135.331 110.01C136.948 110.01 138.261 111.322 138.261 112.939C138.261 114.557 136.948 115.869 135.331 115.869C133.714 115.869 132.401 114.557 132.401 112.939C132.401 111.322 133.714 110.01 135.331 110.01Z" fill="#94D4FF"/>
<path id="Vector_2" d="M120.683 127.588C123.92 127.588 126.542 130.21 126.542 133.447C126.542 136.685 123.92 139.307 120.683 139.307C117.445 139.307 114.823 136.685 114.823 133.447C114.823 130.21 117.445 127.588 120.683 127.588Z" fill="#3256C1"/>
<path id="Vector_3" d="M114.823 7.4707C116.44 7.4707 117.753 8.7832 117.753 10.4004C117.753 12.0176 116.44 13.3301 114.823 13.3301C113.206 13.3301 111.894 12.0176 111.894 10.4004C111.894 8.7832 113.206 7.4707 114.823 7.4707Z" fill="#94D4FF"/>
<path id="Vector_4" d="M73.8076 16.2598C41.4463 16.2598 15.2139 42.4922 15.2139 74.8535C15.2139 107.215 41.4463 133.447 73.8076 133.447C106.169 133.447 132.401 107.215 132.401 74.8535C132.401 42.4922 106.169 16.2598 73.8076 16.2598Z" fill="#3D44DF"/>
<path id="Vector_5" d="M73.8076 118.799C49.5381 118.799 29.8623 99.123 29.8623 74.8535C29.8623 50.584 49.5381 30.9082 73.8076 30.9082C98.0771 30.9082 117.753 50.584 117.753 74.8535C117.753 99.123 98.0771 118.799 73.8076 118.799Z" fill="white"/>
<path id="Vector_6" d="M95.5896 61.002C97.8779 63.29 97.8779 66.999 95.5896 69.2871L74.8737 90.0059L66.5886 98.291L58.3005 90.0059L52.0866 83.7891C50.9443 82.6465 50.3701 81.1465 50.3701 79.6465C50.3701 78.1465 50.9443 76.6465 52.0866 75.5036C54.375 73.2155 58.084 73.2155 60.3718 75.5036L66.5886 81.7175L87.3047 61.002C88.4502 59.8594 89.9473 59.2852 91.4473 59.2852C92.9473 59.2852 94.4443 59.8594 95.5896 61.002Z" fill="#07CC66"/>
<path id="Vector_7" d="M29.8623 133.447C31.4795 133.447 32.792 134.76 32.792 136.377C32.792 137.994 31.4795 139.307 29.8623 139.307C28.2448 139.307 26.9326 137.994 26.9326 136.377C26.9326 134.76 28.2448 133.447 29.8623 133.447Z" fill="#94D4FF"/>
<path id="Vector_8" d="M22.5381 13.3301C26.584 13.3301 29.8623 16.6084 29.8623 20.6543C29.8623 24.7002 26.584 27.9785 22.5381 27.9785C18.4919 27.9785 15.2139 24.7002 15.2139 20.6543C15.2139 16.6084 18.4919 13.3301 22.5381 13.3301Z" fill="#3256C1"/>
<path id="Vector_9" d="M12.2842 36.7676C13.9014 36.7676 15.2139 38.0801 15.2139 39.6973C15.2139 41.3145 13.9014 42.627 12.2842 42.627C10.6667 42.627 9.35449 41.3145 9.35449 39.6973C9.35449 38.0801 10.6667 36.7676 12.2842 36.7676ZM12.2842 110.01C13.9014 110.01 15.2139 111.322 15.2139 112.939C15.2139 114.557 13.9014 115.869 12.2842 115.869C10.6667 115.869 9.35449 114.557 9.35449 112.939C9.35449 111.322 10.6667 110.01 12.2842 110.01Z" fill="#94D4FF"/>
<g id="Group_2">
<path id="Vector_10" d="M108.964 74.8535C108.964 73.2354 107.652 71.9238 106.034 71.9238C104.416 71.9238 103.104 73.2354 103.104 74.8535C103.104 91.0081 89.9622 104.15 73.8076 104.15C72.1896 104.15 70.8779 105.462 70.8779 107.08V118.699C71.8465 118.763 72.8229 118.799 73.8076 118.799C74.7923 118.799 75.7685 118.763 76.7373 118.699V109.889C94.7566 108.395 108.964 93.252 108.964 74.8535ZM38.6514 74.8535C38.6514 76.4713 39.963 77.7832 41.5811 77.7832C43.1988 77.7832 44.5107 76.4713 44.5107 74.8535C44.5107 58.6992 57.653 45.5566 73.8076 45.5566C75.4254 45.5566 76.7373 44.245 76.7373 42.627V31.0078C75.7685 30.9439 74.7923 30.9082 73.8076 30.9082C72.8229 30.9082 71.8465 30.9439 70.8779 31.0078V39.8183C52.8586 41.3121 38.6514 56.4551 38.6514 74.8535Z" fill="#D0DCE7"/>
</g>
</g>
</g>
</svg>
